<?xml version="1.0" encoding="iso-8859-1"?>
<!-- Generator: Adobe Illustrator 21.0.2, SVG Export Plug-In . SVG Version: 6.00 Build 0)  -->
<svg xmlns="http://www.w3.org/2000/svg" xmlns:xlink="http://www.w3.org/1999/xlink" version="1.1" id="Layer_1" x="0px" y="0px" viewBox="0 0 64 64" style="enable-background:new 0 0 64 64;" xml:space="preserve">
<path style="fill:#85CBF8;" d="M54.606,28.823c-0.028-3.113-0.588-6.115-1.663-8.925c-1.949-5.094-5.236-9.009-9.769-11.633  c-4.961-2.873-10.411-3.856-16.191-2.924c-5.941,0.959-10.859,3.749-14.617,8.29C9.317,17.315,6.781,22.781,6,28  c-0.031,0.21,2.595-1.768,2.779-2.028c0.363-0.512,0.702-0.988,1.067-1.443c3.19-3.969,7.258-6.873,12.092-8.633  c3.655-1.332,6.95-1.733,10.074-1.231C34.468,15.06,36.85,16.196,38,18c0.848,1.329,1.672,5.832,1.801,7.875  c0.006,0.097,0.009,0.194,0.011,0.291H21.143c0.352-1.388,0.98-2.077,2.106-3.309c0.263-0.288,0.547-0.599,0.853-0.948  c0.25-0.284,0.276-0.688,0.119-1.034c-0.156-0.344-0.534-0.567-0.913-0.567c-0.103-0.008-0.249,0.009-0.37,0.039l0-0.003  C15.628,22.302,13,29,12.572,40.203c-0.322,8.439,7.774,14.57,16.432,16.325C30.564,56.845,32.219,57,34.079,57  c0.98,0,2.017-0.043,3.127-0.129c4.328-0.336,8.447-1.465,12.244-3.357c0.648-0.324,0.974-0.855,0.971-1.58  c-0.01-2.245-0.009-3.491-0.008-5.736l0-2.785c0-0.147-0.01-0.293-0.022-0.44l-0.012-0.158c-0.032-0.523-0.535-0.913-1.064-0.902  c-0.152,0.006-0.346,0.054-0.479,0.128l-0.411,0.234c-5.039,2.88-10.48,3.92-16.169,3.089c-2.936-0.428-5.185-1.511-6.875-3.313  c-1.293-1.378-3.016-4.034-3.195-6.04h31.509c0.532,0,0.963-0.431,0.963-0.963l0-0.226L54.606,28.823z"/>
<g>
	<path style="fill:#6FC6F0;" d="M50.411,43.399c0,0.524,0,1.01,0,1.484l0-1.47C50.412,43.409,50.411,43.404,50.411,43.399z"/>
	<path style="fill:#6FC6F0;" d="M49.449,49.514c-3.797,1.892-7.916,3.022-12.244,3.357C36.096,52.957,35.059,53,34.079,53   c-1.859,0-3.515-0.155-5.075-0.471c-7.953-1.613-15.413-6.923-16.328-14.316c-0.043,0.647-0.078,1.31-0.104,1.991   c-0.323,8.439,7.774,14.57,16.432,16.325C30.564,56.845,32.219,57,34.079,57c0.98,0,2.017-0.043,3.127-0.129   c4.328-0.336,8.447-1.465,12.244-3.357c0.648-0.323,0.974-0.855,0.971-1.58c-0.007-1.567-0.008-2.652-0.009-3.925   C50.391,48.693,50.073,49.202,49.449,49.514z"/>
</g>
<path style="fill:#9FDDFF;" d="M12.366,13.631c-0.032,0.039-0.062,0.084-0.094,0.123c0.365,0.564,0.922,1.017,1.66,1.202  l0.008,0.002c0.912,0.229,1.881-0.01,2.567-0.653c1.045-0.978,2.207-1.862,3.485-2.628c7.728-4.628,17.26-3.576,23.786,1.916  c0.926,0.779,2.232,0.912,3.271,0.29l0.017-0.01c0.607-0.364,1.02-0.913,1.224-1.522c-1.477-1.588-3.174-2.963-5.116-4.087  c-4.961-2.873-10.411-3.856-16.191-2.924C21.043,6.3,16.124,9.089,12.366,13.631z"/>
<g>
	<path style="fill:#8D6C9F;" d="M55.529,28.739c-0.029-3.232-0.61-6.35-1.727-9.268c-2.024-5.29-5.437-9.354-10.144-12.08   c-5.151-2.983-10.811-4.004-16.812-3.036c-6.169,0.996-11.276,3.893-15.178,8.608c-3.166,3.826-5.182,8.514-5.993,13.933   c-0.032,0.218-0.058,0.437-0.087,0.692l-0.046,0.396c-0.055,0.452,0.203,0.884,0.626,1.051s0.906,0.026,1.174-0.342   c0.211-0.29,0.409-0.568,0.601-0.839c0.377-0.531,0.729-1.026,1.108-1.498c3.312-4.121,7.537-7.137,12.556-8.965   c3.795-1.383,7.216-1.8,10.461-1.278c2.55,0.41,4.369,1.52,5.563,3.393c0.881,1.38,1.353,3.012,1.486,5.133   c0.006,0.101,0.01,0.201,0.011,0.302H22.858c0.365-1.441,1.018-2.156,2.187-3.437c0.273-0.299,0.568-0.622,0.886-0.984   c0.26-0.295,0.286-0.715,0.124-1.073c-0.162-0.357-0.555-0.589-0.948-0.589c-0.107-0.009-0.259,0.01-0.384,0.04l0-0.003   c-7.591,2.034-14.952,8.789-12.841,21.661c1.534,8.634,8.073,15.129,17.063,16.952c1.62,0.328,3.339,0.489,5.27,0.489   c1.018,0,2.095-0.045,3.247-0.134c4.494-0.349,8.771-1.521,12.714-3.486c0.672-0.336,1.012-0.888,1.008-1.641   c-0.01-2.331-0.009-4.663-0.009-6.994l0-2.892c0-0.152-0.011-0.305-0.022-0.457l-0.012-0.164c-0.033-0.543-0.556-0.948-1.105-0.937   c-0.158,0.006-0.359,0.056-0.497,0.133L49.11,41.67c-5.232,2.99-10.882,4.07-16.79,3.208c-3.049-0.444-5.384-1.569-7.139-3.44   c-1.343-1.431-2.093-3.15-2.28-5.233h31.681c0.552,0,1-0.447,1-1l0-0.234L55.529,28.739z M21.855,34.204   c-0.266,0-0.521,0.106-0.709,0.295c-0.188,0.188-0.292,0.443-0.291,0.71c0.015,3.071,0.952,5.557,2.867,7.598   c2.077,2.214,4.795,3.538,8.31,4.05c5.99,0.875,11.733-0.105,17.142-2.943l0,1.829c0,2.286-0.001,4.572,0.007,6.896   c-3.682,1.818-7.676,2.906-11.874,3.231c-3.146,0.244-5.677,0.142-7.964-0.322c-8.168-1.655-14.104-7.534-15.489-15.328   c-1.582-9.652,2.729-15.459,8.128-18.158c-0.642,0.945-1.087,2.03-1.315,3.749c-0.038,0.285,0.049,0.573,0.239,0.79   s0.464,0.341,0.752,0.341h18.462c0.552,0,1-0.447,1-1l0.005-0.412c0.005-0.337,0.01-0.677-0.011-1.015   c-0.155-2.473-0.726-4.406-1.795-6.084c-1.498-2.348-3.83-3.792-6.932-4.291c-3.59-0.578-7.34-0.13-11.464,1.374   c-4.994,1.818-9.254,4.739-12.678,8.689c0.954-3.815,2.591-7.096,4.964-9.964c3.584-4.332,8.28-6.992,13.956-7.909   c5.538-0.894,10.75,0.046,15.492,2.792c4.3,2.49,7.421,6.213,9.277,11.064c1.031,2.694,1.568,5.578,1.595,8.57l0.05,5.447H21.855z"/>
	<path style="fill:#8D6C9F;" d="M41.255,10.729c-0.888-0.515-1.803-0.962-2.72-1.33c-0.516-0.206-1.095,0.043-1.301,0.555   c-0.206,0.513,0.042,1.095,0.555,1.301c0.829,0.333,1.658,0.738,2.464,1.205c0.158,0.092,0.33,0.135,0.5,0.135   c0.345,0,0.681-0.179,0.866-0.499C41.896,11.618,41.733,11.006,41.255,10.729z"/>
	<path style="fill:#8D6C9F;" d="M34.287,8.215c-2.172-0.352-4.448-0.34-6.763,0.035c-0.719,0.115-1.433,0.266-2.122,0.447   c-0.534,0.14-0.854,0.687-0.713,1.221c0.118,0.449,0.523,0.746,0.967,0.746c0.084,0,0.169-0.011,0.254-0.033   c0.626-0.164,1.276-0.301,1.932-0.406c2.105-0.339,4.166-0.352,6.126-0.035c0.545,0.089,1.058-0.283,1.146-0.828   C35.203,8.816,34.833,8.303,34.287,8.215z"/>
	<path style="fill:#8D6C9F;" d="M12.504,54.582l-1.414,1.414c-0.391,0.391-0.391,1.023,0,1.414c0.195,0.195,0.451,0.293,0.707,0.293   s0.512-0.098,0.707-0.293l1.414-1.414c0.391-0.391,0.391-1.023,0-1.414S12.895,54.191,12.504,54.582z"/>
	<path style="fill:#8D6C9F;" d="M17.75,57.521c-0.479-0.275-1.09-0.114-1.366,0.366l-1,1.731c-0.276,0.479-0.113,1.09,0.366,1.366   c0.157,0.091,0.33,0.134,0.499,0.134c0.346,0,0.682-0.179,0.867-0.5l1-1.731C18.392,58.409,18.229,57.798,17.75,57.521z"/>
	<path style="fill:#8D6C9F;" d="M9.13,46.288c-0.143-0.533-0.688-0.852-1.225-0.707l-1.932,0.518   c-0.533,0.143-0.85,0.691-0.707,1.225c0.12,0.447,0.523,0.741,0.965,0.741c0.085,0,0.172-0.011,0.259-0.034l1.932-0.518   C8.957,47.37,9.273,46.821,9.13,46.288z"/>
	<path style="fill:#8D6C9F;" d="M22.212,59.37c-0.537-0.144-1.082,0.173-1.225,0.707l-0.518,1.932   c-0.143,0.533,0.173,1.082,0.707,1.225c0.087,0.023,0.174,0.034,0.259,0.034c0.441,0,0.846-0.294,0.965-0.741l0.518-1.932   C23.062,60.062,22.746,59.513,22.212,59.37z"/>
	<path style="fill:#8D6C9F;" d="M10.979,50.75c-0.277-0.479-0.889-0.644-1.366-0.366l-1.732,1c-0.479,0.276-0.642,0.888-0.366,1.366   c0.186,0.321,0.521,0.5,0.867,0.5c0.169,0,0.342-0.043,0.499-0.134l1.732-1C11.091,51.84,11.254,51.229,10.979,50.75z"/>
</g>
</svg>
