<?xml version="1.0"?>
<svg xmlns="http://www.w3.org/2000/svg" id="Layer_1" data-name="Layer 1" viewBox="0 0 64 64"><title>Icons8 RSL Colored Part 9</title><path d="M37.49,58.24a28,28,0,0,0,0-54.49L28,8c7.73,0,17,10.85,17,23S35.73,54,28,54Z" style="fill:#e0678f;"/><path d="M43.37,5.87A27.8,27.8,0,0,0,37.5,3.76L28,8a9.29,9.29,0,0,1,6,2A46.87,46.87,0,0,1,43.37,5.87Z" style="fill:#cc5683;"/><path d="M28,54.87A51.58,51.58,0,0,1,36,52l9,4c-2.21,0-5.42,1.45-7.63,3A46.87,46.87,0,0,0,28,54.87Z" style="fill:#ed7899;"/><path d="M22.52,48.51a27.06,27.06,0,0,0,15,9.73h0a28,28,0,1,1,0-54.49h0A27.18,27.18,0,0,0,21.65,14.62,34.34,34.34,0,0,0,17,32.31C17,43,22.52,48.51,22.52,48.51Z" style="fill:#ed7899;"/><path d="M60,31A29,29,0,0,0,37.73,2.8l-.11,0a29,29,0,1,0,.15,56.42h.05A29,29,0,0,0,60,31Zm-2,0A27,27,0,0,1,37.5,57.2a24.87,24.87,0,0,1-7.58-3.27A9.88,9.88,0,0,0,31,54c8.27,0,15-10.32,15-23S39.27,8,31,8a9.89,9.89,0,0,0-1,.06A25.12,25.12,0,0,1,37.5,4.8,27,27,0,0,1,58,31ZM22.45,15.21h0c.39-.54.81-1.05,1.23-1.56A10,10,0,0,1,31,10c7.17,0,13,9.42,13,21S38.17,52,31,52a9.84,9.84,0,0,1-7.13-3.46c-.19-.22-.39-.43-.57-.66h0C20.09,44.05,18,37.92,18,31,18,24.71,19.73,19.07,22.45,15.21ZM4,31A27,27,0,0,1,31,4c.76,0,1.51,0,2.25.1A28.73,28.73,0,0,0,20.84,14a1,1,0,0,0-.08.18A29.73,29.73,0,0,0,16,31c0,7.27,2.22,13.76,5.66,18a1,1,0,0,0,.08.15A28.54,28.54,0,0,0,33.22,57.9c-.73.06-1.47.1-2.22.1A27,27,0,0,1,4,31Z" style="fill:#8d6c9f;"/><path d="M51.32,30.31a1,1,0,0,0,0,2h2a1,1,0,1,0,0-2Z" style="fill:#8d6c9f;"/><path d="M52.84,35.91l-1.93-.52a1,1,0,1,0-.52,1.93l1.93.52a1,1,0,0,0,.52-1.93Z" style="fill:#8d6c9f;"/><path d="M48.71,22.56a1,1,0,0,0,.5-.13l1.73-1a1,1,0,1,0-1-1.73l-1.73,1a1,1,0,0,0,.5,1.87Z" style="fill:#8d6c9f;"/><path d="M48.21,41.92l1.73,1a1,1,0,1,0,1-1.73l-1.73-1a1,1,0,1,0-1,1.73Z" style="fill:#8d6c9f;"/><path d="M49.69,26.52a1,1,0,0,0,1.22.71l1.93-.52a1,1,0,1,0-.52-1.93l-1.93.52A1,1,0,0,0,49.69,26.52Z" style="fill:#8d6c9f;"/></svg>
