<?xml version="1.0"?>
<svg xmlns="http://www.w3.org/2000/svg" id="Layer_1" data-name="Layer 1" viewBox="0 0 64 64"><title>Icons8 RSL Colored Part 10</title><circle cx="31.01" cy="31.05" r="28" style="fill:#faefde;"/><path d="M31,53.05a22,22,0,1,1,22-22A22,22,0,0,1,31,53.05Z" style="fill:#6fc6f0;"/><path d="M31,48.05a17,17,0,1,1,17-17A17,17,0,0,1,31,48.05Z" style="fill:#85cbf8;"/><path d="M34.41,34.32l-.11.1a6.27,6.27,0,0,1-.86.68l-18.7,12,12-18.7a4.9,4.9,0,0,1,.63-.81l.1.1L31,31Z" style="fill:#faefde;"/><path d="M47.26,14.79l-12,18.7a6,6,0,0,1-.83,1l-.11-.1-3.46-3.31-3.45-3.3.1-.1a5.44,5.44,0,0,1,1.07-.9Z" style="fill:#ed7899;"/><path d="M47.26,14.79l-12,18.7a6,6,0,0,1-.83,1l-.11-.1-.15.13L31,31Z" style="fill:#e0678f;"/><path d="M34.15,34.55a5.4,5.4,0,0,1-.71.55l-18.7,12,16.1-16L31,31,31,31Z" style="fill:#efd8be;"/><path d="M31,2.05a29,29,0,1,0,29,29A29,29,0,0,0,31,2.05Zm0,56a27,27,0,1,1,27-27A27,27,0,0,1,31,58.05Z" style="fill:#8d6c9f;"/><path d="M30,13.05v2a1,1,0,0,0,2,0v-2a1,1,0,0,0-2,0Z" style="fill:#faefde;"/><path d="M30,47.05v2a1,1,0,0,0,2,0v-2a1,1,0,0,0-2,0Z" style="fill:#faefde;"/><path d="M50,31.05a1,1,0,0,0-1-1H47a1,1,0,0,0,0,2h2A1,1,0,0,0,50,31.05Z" style="fill:#faefde;"/><path d="M16,31.05a1,1,0,0,0-1-1H13a1,1,0,0,0,0,2h2A1,1,0,0,0,16,31.05Z" style="fill:#faefde;"/><path d="M17.57,17.62a1,1,0,0,0,0,1.41L19,20.45A1,1,0,0,0,20.39,19L19,17.62A1,1,0,0,0,17.57,17.62Z" style="fill:#faefde;"/><path d="M41.61,41.66a1,1,0,0,0,0,1.41L43,44.49a1,1,0,0,0,1.41-1.41L43,41.66A1,1,0,0,0,41.61,41.66Z" style="fill:#faefde;"/><path d="M23.88,13.44a1,1,0,0,0-.55,1.3l.75,1.85a1,1,0,0,0,.93.63,1,1,0,0,0,.93-1.37L25.18,14A1,1,0,0,0,23.88,13.44Z" style="fill:#faefde;"/><path d="M36.62,45a1,1,0,0,0-.55,1.3l.75,1.85a1,1,0,0,0,.93.63,1,1,0,0,0,.93-1.37l-.75-1.85A1,1,0,0,0,36.62,45Z" style="fill:#faefde;"/><path d="M47.32,23.38l-1.85.75A1,1,0,1,0,46.21,26l1.85-.75a1,1,0,0,0-.75-1.85Z" style="fill:#faefde;"/><path d="M14.31,38.8a1,1,0,0,0,.38-.07L16.54,38a1,1,0,1,0-.75-1.85l-1.85.75a1,1,0,0,0,.38,1.93Z" style="fill:#faefde;"/><path d="M16.66,23.88l-1.84-.78A1,1,0,1,0,14,24.94l1.84.78a1,1,0,0,0,.78-1.84Z" style="fill:#faefde;"/><path d="M46.12,36.39a1,1,0,0,0-.78,1.84l1.84.78A1,1,0,1,0,48,37.17Z" style="fill:#faefde;"/><path d="M37.11,14.09l-.78,1.84a1,1,0,0,0,1.84.78L39,14.88a1,1,0,1,0-1.84-.78Z" style="fill:#faefde;"/><path d="M23.83,45.39,23,47.23a1,1,0,0,0,1.84.78l.78-1.84a1,1,0,1,0-1.84-.78Z" style="fill:#faefde;"/><path d="M35.14,35.2h0A7,7,0,0,0,36.08,34l12-18.7A1,1,0,0,0,46.72,14L28,26a7.05,7.05,0,0,0-2.1,2.1l-12,18.7a1,1,0,0,0,1.38,1.38l18.7-12A7,7,0,0,0,35.14,35.2Zm8.8-17.08L34.4,33l0,0-5.31-5.31,0,0ZM18.06,44,27.6,29.16l0,0,5.31,5.31,0,0Z" style="fill:#8d6c9f;"/><path d="M50.12,18.28a1,1,0,0,0-1.66,1.12,21,21,0,0,1-29.23,29,1,1,0,0,0-1.12,1.65,23,23,0,0,0,32-31.79Z" style="fill:#8d6c9f;"/><path d="M40.31,12.24a21,21,0,0,1,2.28,1.32A1,1,0,0,0,43.7,11.9a23,23,0,0,0-2.5-1.44,1,1,0,1,0-.89,1.79Z" style="fill:#8d6c9f;"/><path d="M13.64,42.83A21,21,0,0,1,36.94,10.92,1,1,0,0,0,37.5,9,23,23,0,0,0,12,44a1,1,0,0,0,1.65-1.12Z" style="fill:#8d6c9f;"/></svg>
